<svg xmlns="http://www.w3.org/2000/svg" xmlns:xlink="http://www.w3.org/1999/xlink" height="800" version="1.1" width="1000" viewBox="-50 -40 1100 880.0000000000001" preserveAspectRatio="xMinYMin" style="overflow: hidden; position: relative;">
  <desc>Created with Raphaël 2.1.2</desc>
  <defs>
    <linearGradient id="290-_7f00ff-_fff-_7f00ff" x1="0" y1="1" x2="6.123233995736766e-17" y2="0" gradientTransform="matrix(1,0,0,1,0,0)">
      <stop offset="0%" stop-color="#7f00ff" />
      <stop offset="50%" stop-color="#ffffff" />
      <stop offset="100%" stop-color="#7f00ff" />
    </linearGradient>
    <linearGradient id="690-_8bfd5d-_fff-_8bfd5d" x1="0" y1="1" x2="6.123233995736766e-17" y2="0" gradientTransform="matrix(1,0,0,1,0,0)">
      <stop offset="0%" stop-color="#8bfd5d" />
      <stop offset="50%" stop-color="#ffffff" />
      <stop offset="100%" stop-color="#8bfd5d" />
    </linearGradient>
    <linearGradient id="1090-_8bfd5d-_fff-_8bfd5d" x1="0" y1="1" x2="6.123233995736766e-17" y2="0" gradientTransform="matrix(1,0,0,1,0,0)">
      <stop offset="0%" stop-color="#8bfd5d" />
      <stop offset="50%" stop-color="#ffffff" />
      <stop offset="100%" stop-color="#8bfd5d" />
    </linearGradient>
    <linearGradient id="1490-_8bfd5d-_fff-_8bfd5d" x1="0" y1="1" x2="6.123233995736766e-17" y2="0" gradientTransform="matrix(1,0,0,1,0,0)">
      <stop offset="0%" stop-color="#8bfd5d" />
      <stop offset="50%" stop-color="#ffffff" />
      <stop offset="100%" stop-color="#8bfd5d" />
    </linearGradient>
    <linearGradient id="1890-_8bfd5d-_fff-_8bfd5d" x1="0" y1="1" x2="6.123233995736766e-17" y2="0" gradientTransform="matrix(1,0,0,1,0,0)">
      <stop offset="0%" stop-color="#8bfd5d" />
      <stop offset="50%" stop-color="#ffffff" />
      <stop offset="100%" stop-color="#8bfd5d" />
    </linearGradient>
    <linearGradient id="2290-_fec369-_fff-_fec369" x1="0" y1="1" x2="6.123233995736766e-17" y2="0" gradientTransform="matrix(1,0,0,1,0,0)">
      <stop offset="0%" stop-color="#fec369" />
      <stop offset="50%" stop-color="#ffffff" />
      <stop offset="100%" stop-color="#fec369" />
    </linearGradient>
    <linearGradient id="2690-_fec369-_fff-_fec369" x1="0" y1="1" x2="6.123233995736766e-17" y2="0" gradientTransform="matrix(1,0,0,1,0,0)">
      <stop offset="0%" stop-color="#fec369" />
      <stop offset="50%" stop-color="#ffffff" />
      <stop offset="100%" stop-color="#fec369" />
    </linearGradient>
    <linearGradient id="3090-_fec369-_fff-_fec369" x1="0" y1="1" x2="6.123233995736766e-17" y2="0" gradientTransform="matrix(1,0,0,1,0,0)">
      <stop offset="0%" stop-color="#fec369" />
      <stop offset="50%" stop-color="#ffffff" />
      <stop offset="100%" stop-color="#fec369" />
    </linearGradient>
    <linearGradient id="3490-_40ecec-_fff-_40ecec" x1="0" y1="1" x2="6.123233995736766e-17" y2="0" gradientTransform="matrix(1,0,0,1,0,0)">
      <stop offset="0%" stop-color="#40ecec" />
      <stop offset="50%" stop-color="#ffffff" />
      <stop offset="100%" stop-color="#40ecec" />
    </linearGradient>
  </defs>
  <rect x="-489" y="-501.5" width="1858" height="1698" rx="10" ry="10" fill="#ffffff" stroke="none" stroke-width="1" style="" />
  <rect x="-489" y="-501.5" width="1858" height="1698" rx="0" ry="0" fill="#ffffff" stroke="none" stroke-width="1" transform="matrix(1,0,0,1,42,27)" style="" />
  <circle cx="448" cy="143.5" r="45" fill="url(#290-_7f00ff-_fff-_7f00ff)" stroke="#000" opacity="1" fill-opacity="1" stroke-opacity="0" stroke-width="1" transform="matrix(1,0,0,1,42,27)" style="opacity: 1; fill-opacity: 1; stroke-opacity: 0;" />
  <circle cx="448" cy="143.5" r="45" fill="#ffffff" stroke="#000" fill-opacity="0.5" stroke-opacity="0" stroke-width="1" transform="matrix(1,0,0,1,42,27)" style="fill-opacity: 0.5; stroke-opacity: 0;" />
  <text x="448" y="143.5" text-anchor="middle" font-family="Arial" font-size="14px" stroke="none" fill="#000000" font-weight="bold" font-style="italic" stroke-width="1" transform="matrix(1,0,0,1,42,27)" style="text-anchor: middle; font-family: Arial; font-size: 14px; font-weight: bold; font-style: italic;">
    <tspan dy="7" x="">Sandy</tspan>
  </text>
  <circle cx="448" cy="143.5" r="45" fill="#ffffff" stroke="#000000" fill-opacity="0.1" stroke-width="2" stroke-opacity="100" id="2109concept1" transform="matrix(1,0,0,1,42,27)" style="fill-opacity: 0.1; stroke-opacity: 100;" />
  <circle cx="304" cy="278.5" r="49" fill="url(#690-_8bfd5d-_fff-_8bfd5d)" stroke="#000" opacity="1" fill-opacity="1" stroke-opacity="0" stroke-width="1" transform="matrix(1,0,0,1,42,27)" style="opacity: 1; fill-opacity: 1; stroke-opacity: 0;" />
  <circle cx="304" cy="278.5" r="49" fill="#ffffff" stroke="#000" fill-opacity="0.5" stroke-opacity="0" stroke-width="1" transform="matrix(1,0,0,1,42,27)" style="fill-opacity: 0.5; stroke-opacity: 0;" />
  <text x="304" y="278.5" text-anchor="middle" font-family="Arial" font-size="14px" stroke="none" fill="#000000" font-weight="bold" font-style="italic" stroke-width="1" transform="matrix(1,0,0,1,42,27)" style="text-anchor: middle; font-family: Arial; font-size: 14px; font-weight: bold; font-style: italic;">
    <tspan dy="0" x="304">Extratropical</tspan>
    <tspan dy="16.8" x="304">Cyclone</tspan>
  </text>
  <circle cx="304" cy="278.5" r="49" fill="#ffffff" stroke="#000000" fill-opacity="0.1" stroke-width="2" stroke-opacity="100" id="61513concept0" transform="matrix(1,0,0,1,42,27)" style="fill-opacity: 0.1; stroke-opacity: 100;" />
  <circle cx="160" cy="424.5" r="49" fill="url(#1090-_8bfd5d-_fff-_8bfd5d)" stroke="#000" opacity="1" fill-opacity="1" stroke-opacity="0" stroke-width="1" transform="matrix(1,0,0,1,42,27)" style="opacity: 1; fill-opacity: 1; stroke-opacity: 0;" />
  <circle cx="160" cy="424.5" r="49" fill="#ffffff" stroke="#000" fill-opacity="0.5" stroke-opacity="0" stroke-width="1" transform="matrix(1,0,0,1,42,27)" style="fill-opacity: 0.5; stroke-opacity: 0;" />
  <text x="160" y="424.5" text-anchor="middle" font-family="Arial" font-size="14px" stroke="none" fill="#000000" font-weight="bold" font-style="italic" stroke-width="1" transform="matrix(1,0,0,1,42,27)" style="text-anchor: middle; font-family: Arial; font-size: 14px; font-weight: bold; font-style: italic;">
    <tspan dy="0" x="160">Warm</tspan>
    <tspan dy="16.8" x="160">Air</tspan>
  </text>
  <circle cx="160" cy="424.5" r="49" fill="#ffffff" stroke="#000000" fill-opacity="0.1" stroke-width="2" stroke-opacity="100" id="22930concept1" transform="matrix(1,0,0,1,42,27)" style="fill-opacity: 0.1; stroke-opacity: 100;" />
  <circle cx="172" cy="547.5" r="49" fill="url(#1490-_8bfd5d-_fff-_8bfd5d)" stroke="#000" opacity="1" fill-opacity="1" stroke-opacity="0" stroke-width="1" transform="matrix(1,0,0,1,42,27)" style="opacity: 1; fill-opacity: 1; stroke-opacity: 0;" />
  <circle cx="172" cy="547.5" r="49" fill="#ffffff" stroke="#000" fill-opacity="0.5" stroke-opacity="0" stroke-width="1" transform="matrix(1,0,0,1,42,27)" style="fill-opacity: 0.5; stroke-opacity: 0;" />
  <text x="172" y="547.5" text-anchor="middle" font-family="Arial" font-size="14px" stroke="none" fill="#000000" font-weight="bold" font-style="italic" stroke-width="1" transform="matrix(1,0,0,1,42,27)" style="text-anchor: middle; font-family: Arial; font-size: 14px; font-weight: bold; font-style: italic;">
    <tspan dy="0" x="172">Cool</tspan>
    <tspan dy="16.8" x="172">Air</tspan>
  </text>
  <circle cx="172" cy="547.5" r="49" fill="#ffffff" stroke="#000000" fill-opacity="0.1" stroke-width="2" stroke-opacity="100" id="27847concept2" transform="matrix(1,0,0,1,42,27)" style="fill-opacity: 0.1; stroke-opacity: 100;" />
  <circle cx="457" cy="441.5" r="49" fill="url(#1890-_8bfd5d-_fff-_8bfd5d)" stroke="#000" opacity="1" fill-opacity="1" stroke-opacity="0" stroke-width="1" transform="matrix(1,0,0,1,42,27)" style="opacity: 1; fill-opacity: 1; stroke-opacity: 0;" />
  <circle cx="457" cy="441.5" r="49" fill="#ffffff" stroke="#000" fill-opacity="0.5" stroke-opacity="0" stroke-width="1" transform="matrix(1,0,0,1,42,27)" style="fill-opacity: 0.5; stroke-opacity: 0;" />
  <text x="457" y="441.5" text-anchor="middle" font-family="Arial" font-size="14px" stroke="none" fill="#000000" font-weight="bold" font-style="italic" stroke-width="1" transform="matrix(1,0,0,1,42,27)" style="text-anchor: middle; font-family: Arial; font-size: 14px; font-weight: bold; font-style: italic;">
    <tspan dy="-7" x="457">Broad,</tspan>
    <tspan dy="16.8" x="457">Comma</tspan>
    <tspan dy="16.8" x="457">Shape</tspan>
  </text>
  <circle cx="457" cy="441.5" r="49" fill="#ffffff" stroke="#000000" fill-opacity="0.1" stroke-width="2" stroke-opacity="100" id="23026concept3" transform="matrix(1,0,0,1,42,27)" style="fill-opacity: 0.1; stroke-opacity: 100;" />
  <circle cx="677" cy="371.5" r="45" fill="url(#2290-_fec369-_fff-_fec369)" stroke="#000" opacity="1" fill-opacity="1" stroke-opacity="0" stroke-width="1" transform="matrix(1,0,0,1,42,27)" style="opacity: 1; fill-opacity: 1; stroke-opacity: 0;" />
  <circle cx="677" cy="371.5" r="45" fill="#ffffff" stroke="#000" fill-opacity="0.5" stroke-opacity="0" stroke-width="1" transform="matrix(1,0,0,1,42,27)" style="fill-opacity: 0.5; stroke-opacity: 0;" />
  <text x="677" y="371.5" text-anchor="middle" font-family="Arial" font-size="14px" stroke="none" fill="#000000" font-weight="bold" font-style="italic" stroke-width="1" transform="matrix(1,0,0,1,42,27)" style="text-anchor: middle; font-family: Arial; font-size: 14px; font-weight: bold; font-style: italic;">
    <tspan dy="0" x="677">Storm</tspan>
    <tspan dy="16.8" x="677">Surge</tspan>
  </text>
  <circle cx="677" cy="371.5" r="45" fill="#ffffff" stroke="#000000" fill-opacity="0.1" stroke-width="2" stroke-opacity="100" id="34556concept4" transform="matrix(1,0,0,1,42,27)" style="fill-opacity: 0.1; stroke-opacity: 100;" />
  <circle cx="724" cy="265.5" r="45" fill="url(#2690-_fec369-_fff-_fec369)" stroke="#000" opacity="1" fill-opacity="1" stroke-opacity="0" stroke-width="1" transform="matrix(1,0,0,1,42,27)" style="opacity: 1; fill-opacity: 1; stroke-opacity: 0;" />
  <circle cx="724" cy="265.5" r="45" fill="#ffffff" stroke="#000" fill-opacity="0.5" stroke-opacity="0" stroke-width="1" transform="matrix(1,0,0,1,42,27)" style="fill-opacity: 0.5; stroke-opacity: 0;" />
  <text x="724" y="265.5" text-anchor="middle" font-family="Arial" font-size="14px" stroke="none" fill="#000000" font-weight="bold" font-style="italic" stroke-width="1" transform="matrix(1,0,0,1,42,27)" style="text-anchor: middle; font-family: Arial; font-size: 14px; font-weight: bold; font-style: italic;">
    <tspan dy="0" x="724">Strong</tspan>
    <tspan dy="16.8" x="724">Winds</tspan>
  </text>
  <circle cx="724" cy="265.5" r="45" fill="#ffffff" stroke="#000000" fill-opacity="0.1" stroke-width="2" stroke-opacity="100" id="55097concept5" transform="matrix(1,0,0,1,42,27)" style="fill-opacity: 0.1; stroke-opacity: 100;" />
  <circle cx="587" cy="438.5" r="45" fill="url(#3090-_fec369-_fff-_fec369)" stroke="#000" opacity="1" fill-opacity="1" stroke-opacity="0" stroke-width="1" transform="matrix(1,0,0,1,42,27)" style="opacity: 1; fill-opacity: 1; stroke-opacity: 0;" />
  <circle cx="587" cy="438.5" r="45" fill="#ffffff" stroke="#000" fill-opacity="0.5" stroke-opacity="0" stroke-width="1" transform="matrix(1,0,0,1,42,27)" style="fill-opacity: 0.5; stroke-opacity: 0;" />
  <text x="587" y="438.5" text-anchor="middle" font-family="Arial" font-size="14px" stroke="none" fill="#000000" font-weight="bold" font-style="italic" stroke-width="1" transform="matrix(1,0,0,1,42,27)" style="text-anchor: middle; font-family: Arial; font-size: 14px; font-weight: bold; font-style: italic;">
    <tspan dy="0" x="587">High</tspan>
    <tspan dy="16.8" x="587">Tide</tspan>
  </text>
  <circle cx="587" cy="438.5" r="45" fill="#ffffff" stroke="#000000" fill-opacity="0.1" stroke-width="2" stroke-opacity="100" id="362818concept6" transform="matrix(1,0,0,1,42,27)" style="fill-opacity: 0.1; stroke-opacity: 100;" />
  <circle cx="708" cy="143.5" r="45" fill="url(#3490-_40ecec-_fff-_40ecec)" stroke="#000" opacity="1" fill-opacity="1" stroke-opacity="0" stroke-width="1" transform="matrix(1,0,0,1,42,27)" style="opacity: 1; fill-opacity: 1; stroke-opacity: 0;" />
  <circle cx="708" cy="143.5" r="45" fill="#ffffff" stroke="#000" fill-opacity="0.5" stroke-opacity="0" stroke-width="1" transform="matrix(1,0,0,1,42,27)" style="fill-opacity: 0.5; stroke-opacity: 0;" />
  <text x="708" y="143.5" text-anchor="middle" font-family="Arial" font-size="14px" stroke="none" fill="#000000" font-weight="bold" font-style="italic" stroke-width="1" transform="matrix(1,0,0,1,42,27)" style="text-anchor: middle; font-family: Arial; font-size: 14px; font-weight: bold; font-style: italic;">
    <tspan dy="7" x="708">Katrina</tspan>
  </text>
  <circle cx="708" cy="143.5" r="45" fill="#ffffff" stroke="#000000" fill-opacity="0.1" stroke-width="2" stroke-opacity="100" id="71080concept7" transform="matrix(1,0,0,1,42,27)" style="fill-opacity: 0.1; stroke-opacity: 100;" />
  <path fill="none" stroke="#000000" d="M450,189.5Q455,255.5,353,270.5" stroke-width="1" id="61518line0" transform="matrix(1,0,0,1,42,27)" style="" />
  <path fill="#000000" stroke="#000000" d="M0,-5L5,5L-5,5Z" transform="matrix(-0.1455,-0.9894,0.9894,-0.1455,395,297.5)" stroke-width="1" style="" />
  <path fill="none" stroke="#000000" d="M307,328.5Q315,478.5,207,440.5" stroke-width="1" id="22933line1" transform="matrix(1,0,0,1,42,27)" style="" />
  <path fill="#000000" stroke="#000000" d="M0,-5L5,5L-5,5Z" transform="matrix(0.3319,-0.9433,0.9433,0.3319,249,467.5)" stroke-width="1" style="" />
  <path fill="none" stroke="#000000" d="M306,328.5Q314,444.5,212,517.5" stroke-width="1" id="27850line2" transform="matrix(1,0,0,1,42,27)" style="" />
  <path fill="#000000" stroke="#000000" d="M0,-5L5,5L-5,5Z" transform="matrix(-0.582,-0.8132,0.8132,-0.582,254,544.5)" stroke-width="1" style="" />
  <path fill="none" stroke="#000000" d="M350,298.5Q453,342.5,455,390.5" stroke-width="1" id="23030line3" transform="matrix(1,0,0,1,42,27)" style="" />
  <path fill="#000000" stroke="#000000" d="M0,-5L5,5L-5,5Z" transform="matrix(-0.9991,0.0416,-0.0416,-0.9991,497,417.5)" stroke-width="1" style="" />
  <path fill="none" stroke="#000000" d="M487,169.5Q575,227.5,650,332.5" stroke-width="1" id="34561line4" transform="matrix(1,0,0,1,42,27)" style="" />
  <path fill="#000000" stroke="#000000" d="M0,-5L5,5L-5,5Z" transform="matrix(-0.8137,0.5812,-0.5812,-0.8137,692,359.5)" stroke-width="1" style="" />
  <path fill="none" stroke="#000000" d="M487,170.5Q611,240.5,679,255.5" stroke-width="1" id="55100line5" transform="matrix(1,0,0,1,42,27)" style="" />
  <path fill="#000000" stroke="#000000" d="M0,-5L5,5L-5,5Z" transform="matrix(-0.2154,0.9765,-0.9765,-0.2154,721,282.5)" stroke-width="1" style="" />
  <path fill="none" stroke="#000000" d="M486,169.5Q595,242.5,588,392.5" stroke-width="1" id="362820line6" transform="matrix(1,0,0,1,42,27)" style="" />
  <path fill="#000000" stroke="#000000" d="M0,-5L5,5L-5,5Z" transform="matrix(-0.9989,-0.0466,0.0466,-0.9989,630,419.5)" stroke-width="1" style="" />
  <path fill="none" stroke="#000000" d="M494,144.5Q578,145.5,662,144.5" stroke-width="1" id="71084line7" transform="matrix(1,0,0,1,42,27)" style="" />
  <path fill="#000000" stroke="#000000" d="M0,-5L5,5L-5,5Z" transform="matrix(0.0119,0.9999,-0.9999,0.0119,704,171.5)" stroke-width="1" style="" />
  <rect x="360" y="201.5" width="125" height="52.8125" rx="0" ry="0" fill="#ffffff" stroke="#000000" stroke-width="1" id="61530phrase0" transform="matrix(1,0,0,1,42,27)" style="" />
  <text x="0" y="225.90625" text-anchor="middle" font-family="Arial" font-size="12px" stroke="none" fill="#000000" font-weight="normal" font-style="normal" stroke-width="1" transform="matrix(1,0,0,1,42,27)" style="text-anchor: middle; font-family: Arial; font-size: 12px; font-weight: normal; font-style: normal;">
    <tspan dy="-10.15625" x="423">merged with</tspan>
    <tspan dy="14.399999999999999" x="423">another storm</tspan>
    <tspan dy="14.399999999999999" x="423">to become an</tspan>
  </text>
  <rect x="231" y="402.5" width="150" height="52.8125" rx="0" ry="0" fill="#ffffff" stroke="#000000" stroke-width="1" id="27853phrase2" transform="matrix(1,0,0,1,42,27)" style="" />
  <text x="0" y="426.90625" text-anchor="middle" font-family="Arial" font-size="12px" stroke="none" fill="#000000" font-weight="normal" font-style="normal" stroke-width="1" transform="matrix(1,0,0,1,42,27)" style="text-anchor: middle; font-family: Arial; font-size: 12px; font-weight: normal; font-style: normal;">
    <tspan dy="-10.15625" x="306">fueled by</tspan>
    <tspan dy="14.399999999999999" x="306">sharp temperature</tspan>
    <tspan dy="14.399999999999999" x="306">contrast between</tspan>
  </text>
  <rect x="372" y="319.5" width="150" height="38.40625" rx="0" ry="0" fill="#ffffff" stroke="#000000" stroke-width="1" id="23036phrase3" transform="matrix(1,0,0,1,42,27)" style="" />
  <text x="0" y="336.703125" text-anchor="middle" font-family="Arial" font-size="12px" stroke="none" fill="#000000" font-weight="normal" font-style="normal" stroke-width="1" transform="matrix(1,0,0,1,42,27)" style="text-anchor: middle; font-family: Arial; font-size: 12px; font-weight: normal; font-style: normal;">
    <tspan dy="-2.9609375" x="447">cloud coverage</tspan>
    <tspan dy="14.399999999999999" x="447">often appears as a</tspan>
  </text>
  <rect x="510" y="207.5" width="150" height="52.8125" rx="0" ry="0" fill="#ffffff" stroke="#000000" stroke-width="1" id="34567phrase4" transform="matrix(1,0,0,1,42,27)" style="" />
  <text x="0" y="231.90625" text-anchor="middle" font-family="Arial" font-size="12px" stroke="none" fill="#000000" font-weight="normal" font-style="normal" stroke-width="1" transform="matrix(1,0,0,1,42,27)" style="text-anchor: middle; font-family: Arial; font-size: 12px; font-weight: normal; font-style: normal;">
    <tspan dy="-10.15625" x="585">damage was caused</tspan>
    <tspan dy="14.399999999999999" x="585">by many factors</tspan>
    <tspan dy="14.399999999999999" x="585">including</tspan>
  </text>
  <rect x="505" y="119.5" width="125" height="38.40625" rx="0" ry="0" fill="#ffffff" stroke="#000000" stroke-width="1" id="71090phrase7" transform="matrix(1,0,0,1,42,27)" style="" />
  <text x="0" y="136.703125" text-anchor="middle" font-family="Arial" font-size="12px" stroke="none" fill="#000000" font-weight="normal" font-style="normal" stroke-width="1" transform="matrix(1,0,0,1,42,27)" style="text-anchor: middle; font-family: Arial; font-size: 12px; font-weight: normal; font-style: normal;">
    <tspan dy="-2.9609375" x="565">was not a tropical</tspan>
    <tspan dy="14.399999999999999" x="565">cyclone like</tspan>
  </text>
</svg>